<html>
<head>
<meta charset="UTF-8">
<meta name="viewport" content="width=device-width, initial-scale=1.0"/>

<style>
.comment
{
    padding-left: 20px;
    margin-top: 4px;
    margin-right: 4px;
    margin-bottom: 4px;
    border: 2px #000 solid;
}
.submission
{
    border: 4px #00f solid;
    padding-left: 20px;
}
.hidden
{
    display: none;
}
</style>
</head>
<body><div class="submission" id="t3_5ytwad">
    <p class="userinfo">
        <a href="https://www.reddit.com/u/jodorowsthesky">jodorowsthesky</a>
        <span class="score"> | 15 points</span>
        <span class="timestamp"> | Mar 11 2017 17:57:27</span>
    </p>
    <strong>[MOVIE] The Americanization of Emily (1964) [720p][x264][865MB]</strong>
    <p><p>.nz/#!rpFimZaB!cWOj2vgngGoyoWuEuE3pAUOeKbag8mzHKLnPhUAiEK0  </p>
<pre><code>Format                                   : MPEG-4
Format profile                           : Base Media
Codec ID                                 : isom (isom/iso2/avc1/mp41)
File size                                : 868 MiB
Duration                                 : 1 h 54 min
Overall bit rate                         : 1 057 kb/s
Writing application                      : Lavf57.20.100

Video
ID                                       : 1
Format                                   : AVC
Format/Info                              : Advanced Video Codec
Format profile                           : High@L4.1
Format settings, CABAC                   : Yes
Format settings, ReFrames                : 4 frames
Codec ID                                 : avc1
Codec ID/Info                            : Advanced Video Coding
Duration                                 : 1 h 54 min
Bit rate                                 : 958 kb/s
Width                                    : 1 272 pixels
Height                                   : 720 pixels
Display aspect ratio                     : 16:9
Frame rate mode                          : Constant
Frame rate                               : 23.976 (24000/1001) FPS
Original frame rate                      : 23.976 (23976/1000) FPS
Color space                              : YUV
Chroma subsampling                       : 4:2:0
Bit depth                                : 8 bits
Scan type                                : Progressive
Bits/(Pixel*Frame)                       : 0.044
Stream size                              : 786 MiB (91%)
Writing library                          : x264 core 142 r2409 d6b4e63
Encoding settings                        : cabac=1 / ref=4 / deblock=1:-1:-1 / analyse=0x3:0x133 / me=umh / subme=9 / psy=1 / psy_rd=1.00:0.15 / mixed_ref=1 / me_range=24 / chroma_me=1 / trellis=2 / 8x8dct=1 / cqm=0 / deadzone=21,11 / fast_pskip=0 / chroma_qp_offset=-3 / threads=18 / lookahead_threads=1 / sliced_threads=0 / nr=0 / decimate=1 / interlaced=0 / bluray_compat=0 / constrained_intra=0 / bframes=3 / b_pyramid=2 / b_adapt=2 / b_bias=0 / direct=3 / weightb=1 / open_gop=0 / weightp=2 / keyint=250 / keyint_min=23 / scenecut=40 / intra_refresh=0 / rc_lookahead=60 / rc=2pass / mbtree=1 / bitrate=958 / ratetol=1.0 / qcomp=0.60 / qpmin=0 / qpmax=69 / qpstep=4 / cplxblur=20.0 / qblur=0.5 / vbv_maxrate=31250 / vbv_bufsize=31250 / nal_hrd=none / filler=0 / ip_ratio=1.40 / aq=1:1.00
Color range                              : Limited
Color primaries                          : BT.709
Matrix coefficients                      : BT.709

Audio
ID                                       : 2
Format                                   : AAC
Format/Info                              : Advanced Audio Codec
Format profile                           : LC
Codec ID                                 : 40
Duration                                 : 1 h 54 min
Bit rate mode                            : Constant
Bit rate                                 : 93.8 kb/s
Channel(s)                               : 2 channels
Channel positions                        : Front: L R
Sampling rate                            : 48.0 kHz
Frame rate                               : 46.875 FPS (1024 spf)
Compression mode                         : Lossy
Stream size                              : 76.9 MiB (9%)
Language                                 : English
Default                                  : Yes
Alternate group                          : 1
</code></pre></p>
    <p class="toolbar">
        <a href="https://www.reddit.com/r/megalinks/comments/5ytwad">permalink</a>
    </p>
</div>
<div class="comment" id="t1_desumff">
    <p class="userinfo">
        <a
        class="toggle_hide_button"
        href="javascript:void(0)"
        onclick="toggle_collapse(this.parentElement.parentElement)">[-]
        </a>
        <a href="https://www.reddit.com/u/boltrop">boltrop</a>
        <span class="score"> | 2 points</span>
        <span class="timestamp"> | Mar 11 2017 18:01:11</span>
    </p>
    <div class="collapsible">
        <h3><a href="https://images-na.ssl-images-amazon.com/images/M/MV5BYzc3MzU1MDAtNTU1NS00Y2IxLWI4MzUtYzQyZGYyYzJlNGRjXkEyXkFqcGdeQXVyMDI2NDg0NQ@@._V1_.jpg">The Americanization of Emily</a> (1964)</h3>
<p><strong>Genre</strong>: Comedy, Drama, War</p>
<p><strong>Rating</strong>:  7.4 (3860 votes)</p>
<p><strong>Certification</strong>: Approved</p>
<p><strong>Runtime</strong>: 115 min</p>
<hr>
<blockquote>
<p><strong>Director(s)</strong>: <a href="https://www.imdb.com/name/nm0002137/">Arthur Hiller</a></p>
<p><strong>Writer(s)</strong>: <a href="https://www.imdb.com/name/nm0154665/">Paddy Chayefsky</a>, <a href="https://www.imdb.com/name/nm0401239/">William Bradford Huie</a></p>
<p><strong>Cast</strong>: <a href="https://www.imdb.com/name/nm0001258/">James Garner</a>, <a href="https://www.imdb.com/name/nm0000267/">Julie Andrews</a>, <a href="https://www.imdb.com/name/nm0002048/">Melvyn Douglas</a>, <a href="https://www.imdb.com/name/nm0000336/">James Coburn</a></p>
<p><strong>Plot</strong>: An American naval officer's talent for living the good life in wartime is challenged when he falls in love and is sent on a dangerous mission.</p>
</blockquote>
<hr>
<p>^This ^summary ^is ^taken ^from <a href="https://www.imdb.com/title/tt0057840/">^imdb.com</a> ^| ^For ^feedback ^or ^suggestions ^contact <a href="http://www.reddit.com/message/compose/?to=indigo6alpha">^/u/indigo6alpha</a></p>
        <p class="toolbar">
            <a href="https://www.reddit.com/r/megalinks/comments/5ytwad/_/desumff">permalink</a>
        </p>
        
    </div>
</div>
</body>

<script>
function toggle_collapse(comment_div)
{
    var button = comment_div.getElementsByClassName("toggle_hide_button")[0];
    var collapsible = comment_div.getElementsByClassName("collapsible")[0];
    if (collapsible.classList.contains("hidden"))
    {
        collapsible.classList.remove("hidden");
        button.innerText = "[-]";
    }
    else
    {
        collapsible.classList.add("hidden");
        button.innerText = "[+]";
    }
}
</script>
</html>
